<svg width="359" height="78" viewBox="0 0 359 78" fill="none" xmlns="http://www.w3.org/2000/svg">
    <path
        d="M121.16 67.96C113.64 67.96 109.04 64.48 107.36 57.52L105.86 51.34H103.04V67H89.9V25.72H108.08C111.52 25.72 114.54 26.24 117.14 27.28C119.78 28.28 121.82 29.7 123.26 31.54C124.7 33.38 125.42 35.5 125.42 37.9C125.42 40.58 124.76 42.84 123.44 44.68C122.16 46.48 120.16 47.96 117.44 49.12C117.72 50.64 118.04 52.02 118.4 53.26C118.88 54.78 119.54 55.84 120.38 56.44C121.22 57.04 122.44 57.34 124.04 57.34C124.6 57.34 125.48 57.26 126.68 57.1V66.88C124.8 67.6 122.96 67.96 121.16 67.96ZM105.32 42.94C108.28 42.94 110.36 42.62 111.56 41.98C112.8 41.3 113.42 40.16 113.42 38.56C113.42 37.2 112.92 36.22 111.92 35.62C110.92 34.98 109.34 34.66 107.18 34.66H103.04V42.94H105.32ZM146.435 67.48C143.115 67.48 140.155 66.82 137.555 65.5C134.995 64.14 132.995 62.3 131.555 59.98C130.115 57.62 129.395 54.96 129.395 52C129.395 48.96 130.135 46.26 131.615 43.9C133.095 41.54 135.095 39.72 137.615 38.44C140.135 37.16 142.935 36.52 146.015 36.52C148.975 36.52 151.495 37.18 153.575 38.5C155.695 39.78 157.275 41.54 158.315 43.78C159.355 45.98 159.875 48.46 159.875 51.22C159.875 51.94 159.835 52.46 159.755 52.78L141.755 55.12C142.235 56.52 143.015 57.54 144.095 58.18C145.175 58.78 146.595 59.08 148.355 59.08C151.075 59.08 154.015 58.38 157.175 56.98L158.675 65.02C154.955 66.66 150.875 67.48 146.435 67.48ZM150.575 47.56C149.935 45.04 148.415 43.78 146.015 43.78C144.575 43.78 143.435 44.32 142.595 45.4C141.755 46.48 141.315 47.88 141.275 49.6L150.575 47.56ZM164.234 37.36H176.294V43.48C178.614 38.84 182.294 36.52 187.334 36.52C191.174 36.52 194.174 37.9 196.334 40.66C198.534 43.38 199.634 47.16 199.634 52V67H187.034V50.74C187.034 49.02 186.654 47.7 185.894 46.78C185.174 45.86 184.154 45.4 182.834 45.4C181.874 45.4 180.934 45.72 180.014 46.36C179.094 46.96 178.334 47.84 177.734 49C177.174 50.16 176.894 51.48 176.894 52.96V67H164.234V37.36ZM218.038 67.48C214.518 67.48 211.778 66.48 209.818 64.48C207.858 62.44 206.878 59.64 206.878 56.08V44.38H203.038V36.94H207.778L213.358 25.6H219.418V36.94H226.378V44.38H219.418V54.58C219.418 55.58 219.738 56.36 220.378 56.92C221.018 57.48 221.918 57.76 223.078 57.76C224.158 57.76 225.138 57.52 226.018 57.04L226.498 65.44C225.498 66.04 224.198 66.54 222.598 66.94C221.038 67.3 219.518 67.48 218.038 67.48ZM239.673 25.72H257.913L269.853 67H255.753L254.193 59.08H243.513L241.773 67H228.273L239.673 25.72ZM252.753 51.7L248.853 33.64L244.773 51.7H252.753ZM272.926 37.36H285.586V42.58C287.506 38.54 290.766 36.52 295.366 36.52C298.046 36.52 300.506 37.2 302.746 38.56C305.026 39.88 306.806 41.72 308.086 44.08C309.406 46.44 310.066 49.08 310.066 52C310.066 54.92 309.386 57.56 308.026 59.92C306.706 62.28 304.906 64.14 302.626 65.5C300.386 66.82 297.986 67.48 295.426 67.48C290.866 67.48 287.586 65.46 285.586 61.42V74.8L272.926 77.2V37.36ZM291.586 58C293.226 58 294.626 57.4 295.786 56.2C296.946 55 297.526 53.6 297.526 52C297.526 50.32 296.926 48.9 295.726 47.74C294.566 46.58 293.186 46 291.586 46C289.946 46 288.546 46.58 287.386 47.74C286.226 48.86 285.646 50.2 285.646 51.76V52C285.646 53.68 286.226 55.1 287.386 56.26C288.586 57.42 289.986 58 291.586 58ZM314.645 37.36H327.305V42.58C329.225 38.54 332.485 36.52 337.085 36.52C339.765 36.52 342.225 37.2 344.465 38.56C346.745 39.88 348.525 41.72 349.805 44.08C351.125 46.44 351.785 49.08 351.785 52C351.785 54.92 351.105 57.56 349.745 59.92C348.425 62.28 346.625 64.14 344.345 65.5C342.105 66.82 339.705 67.48 337.145 67.48C332.585 67.48 329.305 65.46 327.305 61.42V74.8L314.645 77.2V37.36ZM333.305 58C334.945 58 336.345 57.4 337.505 56.2C338.665 55 339.245 53.6 339.245 52C339.245 50.32 338.645 48.9 337.445 47.74C336.285 46.58 334.905 46 333.305 46C331.665 46 330.265 46.58 329.105 47.74C327.945 48.86 327.365 50.2 327.365 51.76V52C327.365 53.68 327.945 55.1 329.105 56.26C330.305 57.42 331.705 58 333.305 58Z"
        fill="white" />
    <path d="M0 2H72V74H0V2Z" fill="white" fill-opacity="0.01" />
    <path d="M6 32L36 11L66 32V65H6V32Z" stroke="#685DFF" stroke-width="7.19" stroke-linecap="round"
        stroke-linejoin="round" />
    <path
        d="M19.0294 42.0294C21.258 39.8009 23.9037 38.033 26.8156 36.8268C29.7274 35.6208 32.8482 35 36 35C39.1516 35 42.2725 35.6208 45.1843 36.8268C48.0961 38.033 50.742 39.8009 52.9706 42.0294"
        stroke="#685DFF" stroke-opacity="0.98" stroke-width="7.19" stroke-linecap="round" stroke-linejoin="round" />
    <path
        d="M27.5146 50.5147C28.629 49.4005 29.9518 48.5165 31.4077 47.9135C32.8636 47.3103 34.4241 47 36 47C37.5759 47 39.1363 47.3103 40.5922 47.9135C42.0481 48.5165 43.371 49.4005 44.4853 50.5147"
        stroke="#685DFF" stroke-opacity="0.98" stroke-width="7.19" stroke-linecap="round" stroke-linejoin="round" />
</svg>